<svg xmlns="http://www.w3.org/2000/svg" viewBox="0 0 400 400" width="100%" height="100%">
  <rect width="400" height="400" fill="#ffffff"/>
  <defs>
    <linearGradient id="hitGrad" x1="0%" y1="0%" x2="100%" y2="0%">
      <stop offset="0%" stop-color="#d32f2f"/>
      <stop offset="50%" stop-color="#ef5350"/>
      <stop offset="100%" stop-color="#b71c1c"/>
    </linearGradient>
    <linearGradient id="capGrad" x1="0%" y1="0%" x2="100%" y2="0%">
      <stop offset="0%" stop-color="#212121"/>
      <stop offset="100%" stop-color="#424242"/>
    </linearGradient>
  </defs>
  <rect x="180" y="40" width="40" height="35" rx="5" fill="url(#capGrad)"/>
  <rect x="188" y="75" width="24" height="25" fill="#e0e0e0"/>
  <path d="M 140 130 Q 140 100 188 100 L 212 100 Q 260 100 260 130 Z" fill="url(#hitGrad)"/>
  <rect x="140" y="130" width="120" height="220" rx="15" fill="url(#hitGrad)"/>
  <rect x="140" y="335" width="120" height="15" rx="5" fill="#b71c1c"/>
  <rect x="145" y="150" width="110" height="170" rx="8" fill="#ffffff"/>
  <path d="M 145 150 L 255 150 L 255 190 L 145 200 Z" fill="#ffeb3b"/>
  <text x="200" y="182" font-family="Arial, sans-serif" font-weight="900" font-size="32" fill="#d32f2f" text-anchor="middle">HIT</text>
  <text x="200" y="215" font-family="Arial, sans-serif" font-weight="800" font-size="13" fill="#212121" text-anchor="middle">HIDDEN COCKROACH</text>
  <text x="200" y="232" font-family="Arial, sans-serif" font-weight="700" font-size="12" fill="#d32f2f" text-anchor="middle">SPRAY</text>
  <circle cx="200" cy="265" r="22" stroke="#d32f2f" stroke-width="4" fill="none"/>
  <line x1="200" y1="238" x2="200" y2="292" stroke="#d32f2f" stroke-width="3"/>
  <line x1="173" y1="265" x2="227" y2="265" stroke="#d32f2f" stroke-width="3"/>
  <ellipse cx="200" cy="265" rx="8" ry="12" fill="#212121"/>
  <text x="200" y="308" font-family="Arial, sans-serif" font-weight="700" font-size="11" fill="#616161" text-anchor="middle">320 ml</text>
</svg>
